<?xml version="1.0" encoding="UTF-8" standalone="no"?>
<svg
   xmlns="http://www.w3.org/2000/svg"
   id="svg22"
   xml:space="preserve"
   viewBox="0 0 265 61"
   height="61"
   width="265"
   version="1.1"><g
     id="g8"
     transform="matrix(0.89,0,0,0.89,27.88,30.91)"><path
       id="path6"
       d="m 60.875245,18.681795 20.82812,-0.06217 -34.500104,64.427747 H 24.550635"
       transform="translate(-53.13,-50.83)"
       style="opacity:1;fill:#000000;fill-rule:nonzero;stroke:none;stroke-width:1;stroke-linecap:butt;stroke-linejoin:miter;stroke-miterlimit:4;stroke-dasharray:none;stroke-dashoffset:0" /></g><g
     id="g14"
     transform="translate(114.68,39.35)"><g
       id="text12"
       style="font-style:normal;font-weight:normal;font-size:49px;font-family:'Open Sans';white-space:pre;opacity:1;fill:#000000;fill-rule:nonzero;stroke:none;stroke-width:1;stroke-linecap:butt;stroke-linejoin:miter;stroke-miterlimit:4;stroke-dasharray:none;stroke-dashoffset:0"
       aria-label="slash"><path
         id="path28"
         style=""
         d="m -47.437325,15.868516 q -5.21582,0 -8.134765,-1.650879 v -3.68457 q 1.914062,0.957031 4.067383,1.507324 2.177246,0.550293 4.163086,0.550293 3.134277,0 4.785156,-1.004883 1.674805,-1.004883 1.674805,-3.0146483 0,-1.53125 -1.315918,-2.631836 -1.339844,-1.0766601 -5.191895,-2.5600585 -3.68457,-1.3637696 -5.191894,-2.39257817 -1.555176,-1.02880859 -2.320801,-2.32080083 -0.741699,-1.2919921 -0.741699,-3.0625 0,-2.1293945 1.172363,-3.6845703 1.172363,-1.5551757 3.373535,-2.3925779 2.201172,-0.837403 5.21582,-0.837403 4.234864,0 8.278321,1.7226567 l -1.411622,3.2299805 q -3.971679,-1.6269531 -7.153808,-1.6269531 -2.775391,0 -4.234863,0.8852539 -1.459473,0.8613281 -1.459473,2.4404297 0,1.0527343 0.526367,1.7944335 0.526367,0.7416993 1.746582,1.4116211 1.196289,0.6938477 4.59375,1.93798832 3.110352,1.12451168 4.809082,2.24902348 1.722656,1.1005859 2.416504,2.4165039 0.717774,1.2919922 0.717774,3.0864257 0,3.6606443 -2.72754,5.6464843 -2.703613,1.98584 -7.65625,1.98584 z" /><path
         id="path30"
         style=""
         d="m -30.6175,-21.838515 h 3.971679 V 15.39 H -30.6175 Z" /><path
         id="path32"
         style=""
         d="m -11.811836,15.868516 q -3.923828,0 -6.125,-2.009766 -2.201172,-2.033691 -2.201172,-5.7182614 0,-7.94335935 12.7045897,-8.32617185 L -2.983223,-0.32923794 V -1.9561911 q 0,-3.1103515 -1.3398437,-4.5698242 -1.3398438,-1.4594726 -4.2348633,-1.4594726 -3.301758,0 -7.416992,2.0097656 l -1.220215,-3.0385742 q 1.961914,-1.0766605 4.258789,-1.6508785 2.320801,-0.598145 4.6176758,-0.598145 4.7133789,0 6.9624024,2.1054688 2.2490234,2.0815429 2.2490234,6.6513672 V 15.39 h -2.9428711 l -0.7895508,-3.732422 h -0.1914062 q -1.2919922,1.626954 -2.5600586,2.560059 -1.2680664,0.90918 -2.7514649,1.268066 -1.4594726,0.382813 -3.469238,0.382813 z m 0.789551,-3.277832 q 3.7324214,0 5.8378902,-2.033691 2.1054687,-2.0336919 2.1054687,-5.6943364 V 2.4940042 l -3.9716797,0.1674805 q -3.1821292,0.1196289 -5.1440432,0.7416992 -1.937988,0.5981446 -2.871093,1.7705078 -0.90918,1.1723633 -0.90918,3.0146485 0,2.1293948 1.291992,3.2778318 1.291992,1.124512 3.660645,1.124512 z" /><path
         id="path34"
         style=""
         d="m 15.631035,15.868516 q -5.21582,0 -8.1347658,-1.650879 v -3.68457 q 1.9140625,0.957031 4.0673828,1.507324 2.177246,0.550293 4.163086,0.550293 3.134277,0 4.785156,-1.004883 1.674805,-1.004883 1.674805,-3.0146483 0,-1.53125 -1.315918,-2.631836 Q 19.530937,4.8626566 15.678886,3.3792582 11.994316,2.0154886 10.486992,0.98668003 8.9318161,-0.04212856 8.1661911,-1.3341208 q -0.7416992,-1.2919921 -0.7416992,-3.0625 0,-2.1293945 1.1723633,-3.6845703 1.1723632,-1.5551757 3.3735348,-2.3925779 2.201172,-0.837403 5.215821,-0.837403 4.234863,0 8.27832,1.7226567 l -1.411621,3.2299805 q -3.97168,-1.6269531 -7.153809,-1.6269531 -2.77539,0 -4.234863,0.8852539 -1.459473,0.8613281 -1.459473,2.4404297 0,1.0527343 0.526368,1.7944335 0.526367,0.7416993 1.746582,1.4116211 1.196289,0.6938477 4.59375,1.93798832 3.110351,1.12451168 4.809082,2.24902348 1.722656,1.1005859 2.416503,2.4165039 0.717774,1.2919922 0.717774,3.0864257 0,3.6606443 -2.727539,5.6464843 -2.703613,1.98584 -7.65625,1.98584 z" /><path
         id="path36"
         style=""
         d="m 32.450859,-21.838515 h 3.97168 v 11.269043 q 0,1.9619137 -0.191406,3.3735348 h 0.239257 q 1.172364,-1.9140625 3.34961,-2.9907228 2.177246,-1.07666 4.928711,-1.07666 4.856933,0 7.225586,2.3208008 2.392578,2.296875 2.392578,7.2255859 V 15.39 h -3.97168 V -1.5733786 q 0,-3.2299804 -1.483398,-4.7851562 -1.459473,-1.5791016 -4.545899,-1.5791016 -2.799316,0 -4.545898,1.0048828 -1.722657,0.9809571 -2.560059,3.0864258 -0.837402,2.1054688 -0.837402,5.5268555 V 15.39 h -3.97168 z" /></g></g><g
     id="g20"
     transform="translate(219.73,36.52)"><g
       id="text18"
       style="font-style:normal;font-weight:700;font-size:60px;font-family:'Open Sans';white-space:pre;opacity:1;fill:#000000;fill-rule:nonzero;stroke:none;stroke-width:1;stroke-linecap:butt;stroke-linejoin:miter;stroke-miterlimit:4;stroke-dasharray:none;stroke-dashoffset:0"
       aria-label="ML"><path
         id="path39"
         style=""
         d="m -39.839375,-23.982031 h 12.363282 l 10.136718,32.7539064 h 0.175782 L -6.4116402,-23.982031 H 5.9516411 V 18.85 H -2.5151558 V -1.4234371 q 0,-0.7910156 0.058594,-3.3105469 0.058594,-2.578125 0.3808593,-9.960937 H -2.3393745 L -13.384296,18.85 h -8.320313 l -10.3125,-33.603515 h -0.263672 q 0.556641,9.9902341 0.556641,13.6816404 V 18.85 h -8.115235 z" /><path
         id="path41"
         style=""
         d="m 16.762188,-23.982031 h 9.082031 V 11.35 h 17.373047 v 7.5 H 16.762188 Z" /></g></g></svg>